<svg xmlns="http://www.w3.org/2000/svg" viewBox="0 0 64 64">
	<!-- Red frame -->
	<rect x="4" y="2" width="56" height="60" rx="10" fill="#e84430"/>
	<rect x="7" y="5" width="50" height="54" rx="8" fill="#1a1a2e"/>
	<!-- Crab -->
	<g transform="translate(32,22)">
		<ellipse cx="0" cy="0" rx="5.5" ry="4.5" fill="#e84430"/>
		<line x1="-2.5" y1="-3.5" x2="-4.5" y2="-8" stroke="#e84430" stroke-width="1.3" stroke-linecap="round"/>
		<line x1="2.5" y1="-3.5" x2="4.5" y2="-8" stroke="#e84430" stroke-width="1.3" stroke-linecap="round"/>
		<circle cx="-4.5" cy="-8" r="2" fill="#e84430"/>
		<circle cx="4.5" cy="-8" r="2" fill="#e84430"/>
		<circle cx="-4.5" cy="-8.3" r="1.2" fill="#fff"/>
		<circle cx="4.5" cy="-8.3" r="1.2" fill="#fff"/>
		<circle cx="-4.2" cy="-8.5" r="0.55" fill="#1a1a2e"/>
		<circle cx="4.8" cy="-8.5" r="0.55" fill="#1a1a2e"/>
		<ellipse cx="-4" cy="0.5" rx="1.2" ry="0.6" fill="#ff6b5b" opacity="0.45"/>
		<ellipse cx="4" cy="0.5" rx="1.2" ry="0.6" fill="#ff6b5b" opacity="0.45"/>
		<path d="M-1.2,1.5 Q0,3 1.2,1.5" fill="none" stroke="#1a1a2e" stroke-width="0.6" stroke-linecap="round"/>
		<!-- Left claw -->
		<g transform="translate(-9.5,-1) scale(-0.2,0.2) rotate(-20)">
			<path d="M 20,-4 C 22,-8 22,-16 16,-22 C 10,-26 0,-24 -8,-20 C -16,-16 -24,-10 -26,-2 C -26,6 -24,14 -16,20 C -8,24 0,24 10,22 C 16,18 22,14 20,6 C 18,2 18,-2 20,-4 Z" fill="#e84430"/>
			<ellipse cx="7" cy="0" rx="14" ry="6.5" fill="#1a1a2e"/>
			<circle cx="11" cy="-7" r="2.5" fill="#e84430"/><circle cx="5" cy="-7.5" r="2" fill="#e84430"/><circle cx="0" cy="-6.2" r="1.6" fill="#e84430"/>
			<circle cx="11" cy="7" r="2.5" fill="#e84430"/><circle cx="5" cy="7.5" r="2" fill="#e84430"/><circle cx="0" cy="6.2" r="1.6" fill="#e84430"/>
		</g>
		<!-- Right claw -->
		<g transform="translate(9.5,-1) scale(0.2) rotate(-20)">
			<path d="M 20,-4 C 22,-8 22,-16 16,-22 C 10,-26 0,-24 -8,-20 C -16,-16 -24,-10 -26,-2 C -26,6 -24,14 -16,20 C -8,24 0,24 10,22 C 16,18 22,14 20,6 C 18,2 18,-2 20,-4 Z" fill="#e84430"/>
			<ellipse cx="7" cy="0" rx="14" ry="6.5" fill="#1a1a2e"/>
			<circle cx="11" cy="-7" r="2.5" fill="#e84430"/><circle cx="5" cy="-7.5" r="2" fill="#e84430"/><circle cx="0" cy="-6.2" r="1.6" fill="#e84430"/>
			<circle cx="11" cy="7" r="2.5" fill="#e84430"/><circle cx="5" cy="7.5" r="2" fill="#e84430"/><circle cx="0" cy="6.2" r="1.6" fill="#e84430"/>
		</g>
		<!-- Legs -->
		<line x1="-3.5" y1="3.5" x2="-5.5" y2="6.5" stroke="#e84430" stroke-width="0.9" stroke-linecap="round"/>
		<line x1="-2" y1="4" x2="-3.5" y2="7" stroke="#e84430" stroke-width="0.9" stroke-linecap="round"/>
		<line x1="3.5" y1="3.5" x2="5.5" y2="6.5" stroke="#e84430" stroke-width="0.9" stroke-linecap="round"/>
		<line x1="2" y1="4" x2="3.5" y2="7" stroke="#e84430" stroke-width="0.9" stroke-linecap="round"/>
	</g>
	<!-- Profile lines -->
	<rect x="16" y="38" width="32" height="3" rx="1.5" fill="#8888a8"/>
	<rect x="16" y="44" width="14" height="2" rx="1" fill="#686888"/>
	<rect x="34" y="44" width="14" height="2" rx="1" fill="#686888"/>
	<rect x="16" y="49" width="14" height="2" rx="1" fill="#686888"/>
	<rect x="34" y="49" width="14" height="2" rx="1" fill="#686888"/>
</svg>
